:FULLY-SPECIFIED
:FORCE-ALL-JOINTS-BE-3DOF
:DEGREES
340
root 8.15436 16.0888 -20.4241 10.5998 23.6346 4.14379
lfemur -8.9906 15.9717 -9.94959
ltibia 41.6934 0 0
lfoot 4.31946 27.5308 0
ltoes -24.1401 0 0
rfemur -47.2223 -14.195 10.4716
rtibia 54.6121 0 0
rfoot 1.89748 -17.2568 0
rtoes 9.60555 0 0
lowerback -0.209572 -1.68153 -1.56262
upperback 1.99116 -2.23272 -0.102494
thorax 2.22006 -1.1392 0.728361
lowerneck -5.6447 -8.66894 -0.416766
upperneck -2.04377 -11.5436 6.50772
head 0.744262 -5.71589 1.81342
lclavicle -3.73263e-14 -1.04814e-15 0
lhumerus -48.2668 -35.2383 109.716
lradius 57.3579 0 0
lwrist 18.4573 0 0
lhand 6.32845 11.7273 0
lfingers 7.12502 0 0
lthumb 31.6298 38.9487 0
rclavicle -3.73263e-14 -1.04814e-15 0
rhumerus -22.2361 18.2322 -73.6135
rradius 83.9232 0 0
rwrist 3.0978 0 0
rhand -11.4825 -10.8622 0
rfingers 7.12502 0 0
rthumb 14.4957 -759.463 0
341
root 8.09582 16.1188 -20.2467 10.4199 22 3.56985
lfemur -8.3816 14.7566 -9.26151
ltibia 41.9817 0 0
lfoot 5.94763 28.0379 0
ltoes -22.5335 0 0
rfemur -47.1292 -14.8422 12.1719
rtibia 54.3762 0 0
rfoot 1.02878 -16.3817 0
rtoes 6.34816 0 0
lowerback -0.485995 -1.6167 -1.34124
upperback 1.90419 -2.14798 0.023921
thorax 2.2799 -1.09445 0.728716
lowerneck -5.8332 -8.38938 -0.460742
upperneck -1.71616 -11.1879 6.41091
head 0.863475 -5.52798 1.78478
lclavicle -3.88759e-14 4.33714e-16 0
lhumerus -48.2021 -34.0938 109.398
lradius 57.0944 0 0
lwrist 18.8462 0 0
lhand 5.68061 11.5107 0
lfingers 7.12502 0 0
lthumb 31.013 38.856 0
rclavicle -3.88759e-14 4.33714e-16 0
rhumerus -23.6997 17.7092 -75.5311
rradius 83.8591 0 0
rwrist 3.03235 0 0
rhand -14.7325 -12.3192 0
rfingers 7.12502 0 0
rthumb 11.3711 -761.195 0
342
root 8.03728 16.1488 -20.0693 10.2399 20.3654 2.99591
lfemur -7.7726 13.5415 -8.57342
ltibia 42.2701 0 0
lfoot 7.5758 28.545 0
ltoes -20.927 0 0
rfemur -47.0361 -15.4894 13.8723
rtibia 54.1403 0 0
rfoot 0.160075 -15.5066 0
rtoes 3.09077 0 0
lowerback -0.762419 -1.55187 -1.11986
upperback 1.81721 -2.06324 0.150336
thorax 2.33974 -1.04971 0.729071
lowerneck -6.02169 -8.10982 -0.504717
upperneck -1.38854 -10.8322 6.3141
head 0.982689 -5.34006 1.75614
lclavicle -4.04255e-14 1.91556e-15 0
lhumerus -48.1374 -32.9492 109.08
lradius 56.8309 0 0
lwrist 19.2351 0 0
lhand 5.03277 11.2941 0
lfingers 7.12502 0 0
lthumb 30.3962 38.7633 0
rclavicle -4.04255e-14 1.91556e-15 0
rhumerus -25.1634 17.1861 -77.4487
rradius 83.795 0 0
rwrist 2.9669 0 0
rhand -17.9825 -13.7762 0
rfingers 7.12502 0 0
rthumb 8.24645 -762.927 0
343
root 7.97874 16.1789 -19.8919 10.06 18.7308 2.42197
lfemur -7.1636 12.3264 -7.88534
ltibia 42.5585 0 0
lfoot 9.20397 29.0522 0
ltoes -19.3205 0 0
rfemur -46.943 -16.1367 15.5726
rtibia 53.9044 0 0
rfoot -0.708626 -14.6314 0
rtoes -0.166618 0 0
lowerback -1.03884 -1.48704 -0.898473
upperback 1.73023 -1.9785 0.276751
thorax 2.39958 -1.00496 0.729426
lowerneck -6.21018 -7.83026 -0.548692
upperneck -1.06092 -10.4765 6.21729
head 1.1019 -5.15214 1.7275
lclavicle -4.19752e-14 3.39741e-15 0
lhumerus -48.0727 -31.8047 108.762
lradius 56.5675 0 0
lwrist 19.624 0 0
lhand 4.38493 11.0775 0
lfingers 7.12502 0 0
lthumb 29.7794 38.6706 0
rclavicle -4.19752e-14 3.39741e-15 0
rhumerus -26.627 16.6631 -79.3662
rradius 83.7309 0 0
rwrist 2.90145 0 0
rhand -21.2325 -15.2332 0
rfingers 7.12502 0 0
rthumb 5.12182 -764.659 0
344
root 7.92021 16.2089 -19.7146 9.88005 17.0962 1.84803
lfemur -6.5546 11.1112 -7.19725
ltibia 42.8468 0 0
lfoot 10.8321 29.5593 0
ltoes -17.7139 0 0
rfemur -46.8498 -16.7839 17.2729
rtibia 53.6685 0 0
rfoot -1.57733 -13.7563 0
rtoes -3.42401 0 0
lowerback -1.31527 -1.42221 -0.67709
upperback 1.64326 -1.89377 0.403166
thorax 2.45942 -0.960221 0.729782
lowerneck -6.39868 -7.5507 -0.592668
upperneck -0.733303 -10.1209 6.12047
head 1.22112 -4.96423 1.69887
lclavicle -4.35248e-14 4.87926e-15 0
lhumerus -48.008 -30.6601 108.444
lradius 56.304 0 0
lwrist 20.0128 0 0
lhand 3.73709 10.8609 0
lfingers 7.12502 0 0
lthumb 29.1626 38.5779 0
rclavicle -4.35248e-14 4.87926e-15 0
rhumerus -28.0907 16.14 -81.2838
rradius 83.6668 0 0
rwrist 2.836 0 0
rhand -24.4824 -16.6902 0
rfingers 7.12502 0 0
rthumb 1.99719 -766.392 0
345
root 7.86167 16.2389 -19.5372 9.70011 15.4616 1.27409
lfemur -5.9456 9.89612 -6.50917
ltibia 43.1352 0 0
lfoot 12.4603 30.0664 0
ltoes -16.1074 0 0
rfemur -46.7567 -17.4311 18.9732
rtibia 53.4326 0 0
rfoot -2.44603 -12.8812 0
rtoes -6.6814 0 0
lowerback -1.59169 -1.35738 -0.455707
upperback 1.55628 -1.80903 0.529581
thorax 2.51926 -0.915477 0.730137
lowerneck -6.58717 -7.27114 -0.636643
upperneck -0.405685 -9.76516 6.02366
head 1.34033 -4.77631 1.67023
lclavicle -4.50744e-14 6.36111e-15 0
lhumerus -47.9433 -29.5156 108.126
lradius 56.0405 0 0
lwrist 20.4017 0 0
lhand 3.08925 10.6443 0
lfingers 7.12502 0 0
lthumb 28.5458 38.4852 0
rclavicle -4.50744e-14 6.36111e-15 0
rhumerus -29.5543 15.617 -83.2014
rradius 83.6027 0 0
rwrist 2.77055 0 0
rhand -27.7324 -18.1472 0
rfingers 7.12502 0 0
rthumb -1.12744 -768.124 0
346
root 7.78295 16.2697 -19.3663 9.31665 13.8756 0.823627
lfemur -5.79106 9.24958 -5.8678
ltibia 44.7449 0 0
lfoot 12.3404 29.0951 0
ltoes -8.6513 0 0
rfemur -45.8264 -17.7877 20.2249
rtibia 52.8359 0 0
rfoot -3.80764 -11.4292 0
rtoes -5.67473 0 0
lowerback -1.40386 -1.27359 -0.346586
upperback 1.6135 -1.70267 0.638167
thorax 2.47072 -0.861587 0.787983
lowerneck -6.69946 -6.99915 -0.630199
upperneck -0.113313 -9.41383 5.83421
head 1.431 -4.59672 1.61484
lclavicle -9.1441e-15 8.24956e-15 0
lhumerus -47.7853 -28.8173 107.811
lradius 55.8715 0 0
lwrist 19.818 0 0
lhand 2.38145 10.274 0
lfingers 7.12502 0 0
lthumb 27.8691 38.2246 0
rclavicle -9.1441e-15 8.24956e-15 0
rhumerus -30.7126 14.9055 -84.6883
rradius 82.9562 0 0
rwrist 3.53378 0 0
rhand -33.9404 -21.7091 0
rfingers 7.12502 0 0
rthumb -7.11912 -771.482 0
347
root 7.70423 16.3004 -19.1954 8.93319 12.2896 0.373163
lfemur -5.63653 8.60304 -5.22642
ltibia 46.3546 0 0
lfoot 12.2204 28.1238 0
ltoes -1.1952 0 0
rfemur -44.8961 -18.1443 21.4767
rtibia 52.2392 0 0
rfoot -5.16925 -9.97722 0
rtoes -4.66805 0 0
lowerback -1.21603 -1.1898 -0.237465
upperback 1.67073 -1.59632 0.746753
thorax 2.42219 -0.807697 0.845829
lowerneck -6.81175 -6.72716 -0.623755
upperneck 0.17906 -9.0625 5.64476
head 1.52166 -4.41713 1.55945
lclavicle 2.67862e-14 1.0138e-14 0
lhumerus -47.6272 -28.1189 107.496
lradius 55.7026 0 0
lwrist 19.2344 0 0
lhand 1.67365 9.90366 0
lfingers 7.12502 0 0
lthumb 27.1924 37.9641 0
rclavicle 2.67862e-14 1.0138e-14 0
rhumerus -31.8709 14.1939 -86.1752
rradius 82.3096 0 0
rwrist 4.29702 0 0
rhand -40.1484 -25.2709 0
rfingers 7.12502 0 0
rthumb -13.1108 -774.839 0
348
root 7.62365 16.3243 -19.0308 8.53969 10.8162 -0.0105951
lfemur -5.69393 8.25865 -4.60801
ltibia 48.2302 0 0
lfoot 12.3294 26.0847 0
ltoes 6.45103 0 0
rfemur -43.7702 -18.4464 22.4514
rtibia 51.6171 0 0
rfoot -6.64163 -8.47936 0
rtoes -3.63759 0 0
lowerback -0.948375 -1.1151 -0.193731
upperback 1.74012 -1.49967 0.854117
thorax 2.34309 -0.759811 0.939497
lowerneck -6.88269 -6.47745 -0.615155
upperneck 0.440531 -8.73789 5.45648
head 1.59737 -4.25278 1.50565
lclavicle 1.54058e-14 -2.38542e-15 0
lhumerus -47.4502 -27.5763 107.214
lradius 55.5983 0 0
lwrist 18.7454 0 0
lhand 0.925138 9.67515 0
lfingers 7.12502 0 0
lthumb 26.4762 37.8456 0
rclavicle 1.54058e-14 -2.38542e-15 0
rhumerus -32.9439 13.3749 -87.4253
rradius 81.648 0 0
rwrist 5.16975 0 0
rhand -44.3678 -30.5705 0
rfingers 7.12502 0 0
rthumb -17.1752 -779.831 0
349
root 7.54253 16.3437 -18.8708 8.14827 9.42614 -0.357441
lfemur -5.91172 8.13241 -4.00295
ltibia 50.2502 0 0
lfoot 12.6374 23.2568 0
ltoes 12.8824 0 0
rfemur -42.5525 -18.7157 23.2727
rtibia 50.9783 0 0
rfoot -8.14352 -6.994 0
rtoes -2.57335 0 0
lowerback -0.637742 -1.04244 -0.186248
upperback 1.81156 -1.40453 0.96141
thorax 2.24265 -0.713279 1.05352
lowerneck -6.93046 -6.24695 -0.603369
upperneck 0.679795 -8.43744 5.27793
head 1.66377 -4.1014 1.45479
lclavicle -2.40529e-14 1.70955e-14 0
lhumerus -47.2581 -27.1376 106.953
lradius 55.5442 0 0
lwrist 18.3532 0 0
lhand 0.185788 9.55885 0
lfingers 7.12502 0 0
lthumb 25.7683 37.8339 0
rclavicle -2.40529e-14 1.70955e-14 0
rhumerus -33.9752 12.4665 -88.4992
rradius 81.0217 0 0
rwrist 5.94647 0 0
rhand -47.1311 -36.3958 0
rfingers 7.12502 0 0
rthumb -19.8333 -785.404 0
